<?xml version="1.0" encoding="UTF-8"?>
<svg xmlns="http://www.w3.org/2000/svg" xmlns:xlink="http://www.w3.org/1999/xlink" viewBox="0 0 30 30" width="30px" height="30px">
<g id="surface100062152">
<path style=" stroke:none;fill-rule:nonzero;fill:rgb(100%,81.960785%,45.09804%);fill-opacity:1;" d="M 5.34375 10.015625 L 6.683594 8.671875 C 7.601562 7.757812 9.082031 7.757812 10 8.671875 L 15 13.675781 L 20 8.671875 C 20.917969 7.757812 22.398438 7.757812 23.316406 8.671875 L 24.65625 10.015625 C 25.570312 10.929688 25.570312 12.414062 24.65625 13.328125 L 16.65625 21.328125 C 15.742188 22.242188 14.257812 22.242188 13.34375 21.328125 L 5.34375 13.328125 C 4.429688 12.414062 4.429688 10.929688 5.34375 10.015625 Z M 8.011719 10 L 6.667969 11.339844 C 6.488281 11.523438 6.488281 11.820312 6.667969 12.003906 L 14.667969 20 C 14.851562 20.183594 15.148438 20.183594 15.332031 20 L 23.332031 12.003906 C 23.511719 11.820312 23.511719 11.523438 23.332031 11.339844 L 21.988281 10 C 21.804688 9.816406 21.507812 9.816406 21.328125 10 L 15.332031 15.992188 C 15.148438 16.175781 14.851562 16.175781 14.667969 15.992188 L 8.671875 10 C 8.492188 9.816406 8.195312 9.816406 8.011719 10 Z M 8.011719 10 "/>
</g>
</svg>
