<?xml version="1.0" encoding="UTF-8"?>
<svg xmlns="http://www.w3.org/2000/svg" xmlns:xlink="http://www.w3.org/1999/xlink" viewBox="0 0 30 30" width="30px" height="30px">
<g id="surface100123215">
<path style=" stroke:none;fill-rule:nonzero;fill:rgb(100%,81.960785%,45.09804%);fill-opacity:1;" d="M 24.65625 19.984375 L 23.316406 21.328125 C 22.398438 22.242188 20.917969 22.242188 20 21.328125 L 15 16.324219 L 10 21.328125 C 9.082031 22.242188 7.601562 22.242188 6.683594 21.328125 L 5.34375 19.984375 C 4.429688 19.070312 4.429688 17.585938 5.34375 16.671875 L 13.34375 8.671875 C 14.257812 7.757812 15.742188 7.757812 16.65625 8.671875 L 24.65625 16.671875 C 25.570312 17.585938 25.570312 19.070312 24.65625 19.984375 Z M 21.988281 20 L 23.332031 18.660156 C 23.511719 18.476562 23.511719 18.179688 23.332031 17.996094 L 15.332031 10 C 15.148438 9.816406 14.851562 9.816406 14.667969 10 L 6.667969 17.996094 C 6.488281 18.179688 6.488281 18.476562 6.667969 18.660156 L 8.011719 20 C 8.195312 20.183594 8.492188 20.183594 8.671875 20 L 14.667969 14.007812 C 14.851562 13.824219 15.148438 13.824219 15.332031 14.007812 L 21.328125 20 C 21.507812 20.183594 21.804688 20.183594 21.988281 20 Z M 21.988281 20 "/>
</g>
</svg>
